<svg class="thumb" width="625" height="332" viewBox="0,0,625,332" xmlns="http://www.w3.org/2000/svg" xmlns:inkscape="http://www.inkscape.org/namespaces/inkscape" xmlns:sodipodi="http://sodipodi.sourceforge.net/DTD/sodipodi-0.dtd" xmlns:xlink="http://www.w3.org/1999/xlink" xmlns:ns1="http://www.inkscape.org/namespaces/inkscape" xmlns:sketch="http://www.bohemiancoding.com/sketch/ns" data-guid="f88a3c25-f236-4d06-a221-b8ce412af5ea"><defs></defs><g><g transform="matrix(2.9777,-0.052,0.052,2.9777,268.9609,8.5945)"><svg width="16.391521320410554" height="16.381999999999998" viewBox="16.799239339794724,-1.3010000000000002,16.391521320410554,16.381999999999998"><defs></defs><g><circle fill="none" cx="24.995" cy="6.89" r="3.191" style=""></circle></g></svg></g><g transform="matrix(2.9777,-0.052,0.052,2.9777,314.9609,83.5945)"><svg width="16.383500077982838" height="16.36548071116829" viewBox="31.726697807032664,24.192,16.383500077982838,16.36548071116829"><defs></defs><g><path fill="none" d="M41.483,29.601c-0.474-0.265-1.015-0.409-1.557-0.409c-1.156,0-2.222,0.628-2.788,1.633   c-0.419,0.741-0.522,1.602-0.29,2.424c0.231,0.82,0.764,1.501,1.509,1.922c1.488,0.839,3.515,0.258,4.344-1.221   C43.564,32.41,43.017,30.461,41.483,29.601z" style=""></path></g></svg></g><g transform="matrix(2.9777,-0.052,0.052,2.9777,313.9609,33.5945)"><svg width="16.387733030101266" height="16.381999999999998" viewBox="31.73269780703267,7.436999999999999,16.387733030101266,16.381999999999998"><defs></defs><g><path fill="none" d="M39.921,12.437c-0.541,0-1.08,0.14-1.557,0.409c-0.744,0.414-1.279,1.097-1.51,1.915   c-0.232,0.82-0.129,1.685,0.29,2.426c0.565,1.005,1.632,1.632,2.787,1.632c0.541,0,1.081-0.144,1.559-0.411   c0.745-0.416,1.277-1.097,1.509-1.919c0.232-0.821,0.129-1.681-0.287-2.425C42.143,13.063,41.077,12.437,39.921,12.437z" style=""></path></g></svg></g><g transform="matrix(2.9777,-0.052,0.052,2.9777,270.9609,110.5945)"><svg width="16.389518272894044" height="16.380000000000003" viewBox="16.80024086355298,32.928000000000004,16.389518272894044,16.380000000000003"><defs></defs><g><circle fill="none" cx="24.995" cy="41.118" r="3.19" style=""></circle></g></svg></g><g transform="matrix(2.9777,-0.052,0.052,2.9777,224.9619,35.5945)"><svg width="16.37924407510215" height="16.382" viewBox="1.8839566756362434,7.431999999999999,16.37924407510215,16.382"><defs></defs><g><path fill="none" d="M8.514,18.408c0.474,0.266,1.013,0.406,1.556,0.406l0,0c1.153,0,2.22-0.624,2.785-1.628   c0.862-1.534,0.314-3.485-1.222-4.344c-0.477-0.269-1.015-0.41-1.556-0.41c-1.152,0-2.223,0.625-2.788,1.629   C6.432,15.592,6.979,17.542,8.514,18.408z" style=""></path></g></svg></g><g transform="matrix(2.9777,-0.052,0.052,2.9777,225.9619,84.5945)"><svg width="16.386512940721065" height="16.381" viewBox="1.8809361674064435,24.189,16.386512940721065,16.381"><defs></defs><g><path fill="none" d="M10.065,29.189c-0.541,0-1.079,0.144-1.554,0.409c-0.743,0.414-1.279,1.096-1.509,1.918   C6.77,32.34,6.874,33.2,7.292,33.944c0.562,1.005,1.633,1.626,2.792,1.626c0.541,0,1.079-0.138,1.555-0.405   c1.534-0.861,2.081-2.809,1.222-4.345C12.292,29.816,11.223,29.189,10.065,29.189z" style=""></path></g></svg></g><g transform="matrix(0.9066,0.482,-0.482,0.9066,285.5775,44.3247)"><svg width="51.81995029640821" height="56.191" viewBox="-0.9109068233559796,-4.09,51.81995029640821,56.191"><defs><linearGradient x1="0" y1="0.5" x2="1" y2="0.5" id="linearGradientSklfnxse615k"><stop offset="47.87%" stop-color="#52c8fa"></stop><stop offset="100%" stop-color="#52c8fa"></stop></linearGradient></defs><g><path fill="url('#linearGradientSklfnxse615k')" d="M4.858,12.695c1.562-2.771,5.361-3.852,8.144-2.287c2.875,1.617,3.899,5.27,2.286,8.145   c-1.057,1.884-3.059,3.054-5.217,3.054l0,0c-1.019,0-2.031-0.264-2.924-0.764C4.269,19.222,3.242,15.566,4.858,12.695z    M13.004,37.602c-0.895,0.497-1.903,0.76-2.921,0.76c-2.164,0-4.165-1.17-5.226-3.053c-0.782-1.395-0.975-3.008-0.541-4.547   c0.431-1.538,1.436-2.815,2.828-3.598c2.791-1.562,6.591-0.48,8.145,2.291C16.904,32.329,15.877,35.985,13.004,37.602z    M24.995,47.101c-3.297,0-5.981-2.682-5.981-5.98c0-3.298,2.685-5.982,5.981-5.982c3.3,0,5.983,2.685,5.983,5.982   C30.979,44.419,28.295,47.101,24.995,47.101z M24.995,12.872c-3.297,0-5.981-2.683-5.981-5.981c0-3.3,2.685-5.981,5.981-5.981   c3.3,0,5.983,2.681,5.983,5.981C30.979,10.189,28.295,12.872,24.995,12.872z M45.134,35.311c-1.058,1.885-3.058,3.054-5.221,3.054   c-1.023,0-2.032-0.266-2.928-0.767c-1.392-0.782-2.396-2.062-2.826-3.6c-0.434-1.539-0.235-3.152,0.544-4.544   c1.556-2.771,5.354-3.856,8.144-2.29C45.729,28.785,46.752,32.438,45.134,35.311z M45.686,17.251   c-0.433,1.537-1.441,2.812-2.834,3.594c-0.89,0.502-1.904,0.767-2.923,0.767c-2.159,0-4.162-1.17-5.223-3.056   c-0.779-1.392-0.975-3.007-0.541-4.543c0.433-1.537,1.441-2.816,2.833-3.598c2.793-1.559,6.591-0.48,8.146,2.289   C45.924,14.098,46.113,15.714,45.686,17.251z"></path></g></svg></g><g transform="matrix(2.9777,-0.052,0.052,2.9777,261.3868,1.2802)"><svg width="21.964000279342976" height="21.961999999999996" viewBox="14.014000000000003,-4.091,21.964000279342976,21.961999999999996"><defs><linearGradient x1="0" y1="0.5" x2="1" y2="0.5" id="linearGradientSklfnxse615q"><stop offset="0%" stop-color="#7e7e7e"></stop><stop offset="100%" stop-color="#7e7e7e"></stop></linearGradient></defs><g><path fill="url('#linearGradientSklfnxse615q')" d="M24.995,0.909c-3.297,0-5.981,2.681-5.981,5.981c0,3.299,2.685,5.981,5.981,5.981   c3.3,0,5.983-2.683,5.983-5.981C30.979,3.59,28.295,0.909,24.995,0.909z M24.995,10.081c-1.757,0-3.19-1.43-3.19-3.19   c0-1.758,1.434-3.191,3.19-3.191c1.759,0,3.191,1.433,3.191,3.191C28.187,8.651,26.755,10.081,24.995,10.081z"></path></g></svg></g><g transform="matrix(2.9777,-0.052,0.052,2.9777,263.3868,103.2802)"><svg width="21.964000279342976" height="21.961999999999996" viewBox="14.014000000000003,30.137999999999998,21.964000279342976,21.961999999999996"><defs><linearGradient x1="0" y1="0.5" x2="1" y2="0.5" id="linearGradientSklfnxse615w"><stop offset="0%" stop-color="#7e7e7e"></stop><stop offset="100%" stop-color="#7e7e7e"></stop></linearGradient></defs><g><path fill="url('#linearGradientSklfnxse615w')" d="M24.995,35.138c-3.297,0-5.981,2.685-5.981,5.982c0,3.299,2.685,5.98,5.981,5.98   c3.3,0,5.983-2.682,5.983-5.98C30.979,37.822,28.295,35.138,24.995,35.138z M24.995,44.308c-1.757,0-3.19-1.43-3.19-3.188   c0-1.76,1.434-3.192,3.19-3.192c1.759,0,3.191,1.433,3.191,3.192C28.187,42.878,26.755,44.308,24.995,44.308z"></path></g></svg></g><g transform="matrix(2.9777,-0.052,0.052,2.9777,217.3878,28.2802)"><svg width="21.960571578243655" height="21.918729574123432" viewBox="-0.9074255641533826,4.6842704258765675,21.960571578243655,21.918729574123432"><defs><linearGradient x1="0" y1="0.5" x2="1" y2="0.5" id="linearGradientSklfnxse6162"><stop offset="0%" stop-color="#7e7e7e"></stop><stop offset="100%" stop-color="#7e7e7e"></stop></linearGradient></defs><g><path fill="url('#linearGradientSklfnxse6162')" d="M7.146,20.84c0.894,0.503,1.905,0.763,2.924,0.763l0,0c2.159,0,4.16-1.167,5.217-3.051   c1.617-2.877,0.59-6.53-2.286-8.145C10.219,8.84,6.417,9.92,4.858,12.692C3.242,15.566,4.269,19.222,7.146,20.84z M7.292,14.061   c0.567-1.004,1.633-1.629,2.789-1.629c0.541,0,1.079,0.141,1.555,0.41c1.534,0.863,2.081,2.81,1.221,4.344   c-0.564,1.005-1.63,1.628-2.785,1.628l0,0c-0.541,0-1.08-0.141-1.554-0.406C6.979,17.542,6.432,15.592,7.292,14.061z"></path></g></svg></g><g transform="matrix(2.9777,-0.052,0.052,2.9777,307.3868,76.2802)"><svg width="21.966623704264364" height="21.92290477048988" viewBox="28.936646826552376,21.445095229510123,21.966623704264364,21.92290477048988"><defs><linearGradient x1="0" y1="0.5" x2="1" y2="0.5" id="linearGradientSklfnxse6168"><stop offset="0%" stop-color="#7e7e7e"></stop><stop offset="100%" stop-color="#7e7e7e"></stop></linearGradient></defs><g><path fill="url('#linearGradientSklfnxse6168')" d="M42.85,27.167c-2.793-1.569-6.591-0.479-8.144,2.288c-0.779,1.396-0.978,3.004-0.544,4.544   c0.431,1.542,1.438,2.819,2.827,3.603c0.895,0.502,1.903,0.766,2.927,0.766c2.162,0,4.162-1.17,5.223-3.053   C46.752,32.438,45.729,28.785,42.85,27.167z M42.701,33.946c-0.829,1.48-2.855,2.061-4.344,1.221   c-0.742-0.418-1.277-1.102-1.509-1.921c-0.232-0.82-0.129-1.684,0.29-2.426c0.563-1.004,1.629-1.631,2.788-1.631   c0.539,0,1.08,0.144,1.557,0.409C43.017,30.461,43.564,32.41,42.701,33.946z"></path></g></svg></g><g transform="matrix(2.9777,-0.052,0.052,2.9777,306.3868,26.2802)"><svg width="21.972052872128153" height="21.91582118720742" viewBox="28.938807987908895,4.693178812792581,21.972052872128153,21.91582118720742"><defs><linearGradient x1="0" y1="0.5" x2="1" y2="0.5" id="linearGradientSklfnxse616e"><stop offset="0%" stop-color="#7e7e7e"></stop><stop offset="100%" stop-color="#7e7e7e"></stop></linearGradient></defs><g><path fill="url('#linearGradientSklfnxse616e')" d="M36.998,10.413c-1.392,0.781-2.397,2.06-2.833,3.596c-0.434,1.539-0.238,3.15,0.541,4.544   c1.058,1.887,3.061,3.056,5.223,3.056c1.019,0,2.033-0.264,2.923-0.766c1.393-0.78,2.396-2.058,2.834-3.596   c0.431-1.539,0.238-3.154-0.541-4.545C43.589,9.931,39.788,8.85,36.998,10.413z M42.996,16.493c-0.23,0.817-0.764,1.5-1.51,1.917   c-0.477,0.269-1.018,0.41-1.558,0.41c-1.155,0-2.222-0.624-2.787-1.629c-0.416-0.743-0.52-1.606-0.29-2.428   c0.23-0.817,0.767-1.499,1.509-1.916c0.474-0.267,1.014-0.409,1.559-0.409c1.155,0,2.224,0.628,2.787,1.627   C43.125,14.811,43.229,15.671,42.996,16.493z"></path></g></svg></g><g transform="matrix(2.9777,-0.052,0.052,2.9777,218.3878,77.2802)"><svg width="21.965305483615047" height="21.91688166376193" viewBox="-0.9091456343559203,21.445118336238064,21.965305483615047,21.91688166376193"><defs><linearGradient x1="0" y1="0.5" x2="1" y2="0.5" id="linearGradientSklfnxse616k"><stop offset="0%" stop-color="#7e7e7e"></stop><stop offset="100%" stop-color="#7e7e7e"></stop></linearGradient></defs><g><path fill="url('#linearGradientSklfnxse616k')" d="M7.146,27.164c-1.392,0.782-2.397,2.06-2.828,3.598c-0.434,1.539-0.242,3.153,0.541,4.547   c1.058,1.883,3.058,3.053,5.226,3.053c1.018,0,2.026-0.263,2.921-0.76c2.875-1.616,3.899-5.272,2.286-8.146   C13.736,26.684,9.937,25.602,7.146,27.164z M11.636,35.165c-0.477,0.268-1.015,0.405-1.555,0.405c-1.155,0-2.226-0.625-2.792-1.626   c-0.416-0.744-0.52-1.605-0.291-2.428c0.229-0.82,0.764-1.504,1.511-1.918c0.474-0.267,1.011-0.409,1.552-0.409   c1.158,0,2.226,0.627,2.793,1.631C13.717,32.356,13.169,34.304,11.636,35.165z"></path></g></svg></g><g transform="matrix(0.6648,0,0,0.6533,244.9853,159.3601)"><svg width="171.3" height="182" style="overflow: visible;"><defs><linearGradient x1="0" y1="0.5" x2="1" y2="0.5" id="linearGradientSklfnxse616s"><stop offset="0%" stop-color="#52c8fa"></stop><stop offset="100%" stop-color="#52c8fa"></stop></linearGradient></defs><g transform="matrix(1,0,0,1,0,91.5)"><path d="M 78-70L 84.1-70L 84.1 0L 77 0L 77-56L 49.5-8.9L 46-8.9L 18.5-55.7L 18.5 0L 11.4 0L 11.4-70L 17.5-70L 47.9-18.1L 78-70ZM 105.4 0L 105.4-52.6L 112.5-52.6L 112.5 0L 105.4 0ZM 109-64.1Q 106.8-64.1  105.3-65.6Q 103.8-67.1  103.8-69.2L 103.8-69.2Q 103.8-71.2  105.3-72.7Q 106.8-74.2  109-74.2L 109-74.2Q 111.2-74.2  112.7-72.75Q 114.2-71.3  114.2-69.3L 114.2-69.3Q 114.2-67.1  112.7-65.6Q 111.2-64.1  109-64.1L 109-64.1ZM 146.39999999999998 0.5Q 140 0.5  134.14999999999998-1.35Q 128.29999999999998-3.2  124.99999999999999-6L 124.99999999999999-6L 128.2-11.6Q 131.5-9  136.5-7.35Q 141.5-5.7  146.89999999999998-5.7L 146.89999999999998-5.7Q 154.1-5.7  157.54999999999998-7.95Q 161-10.2  161-14.3L 161-14.3Q 161-17.2  159.1-18.85Q 157.2-20.5  154.29999999999998-21.35Q 151.39999999999998-22.2  146.6-23L 146.6-23Q 140.2-24.2  136.29999999999998-25.45Q 132.39999999999998-26.7  129.64999999999998-29.7Q 126.89999999999999-32.7  126.89999999999999-38L 126.89999999999999-38Q 126.89999999999999-44.6  132.39999999999998-48.8Q 137.89999999999998-53  147.7-53L 147.7-53Q 152.79999999999998-53  157.89999999999998-51.65Q 163-50.3  166.29999999999998-48.1L 166.29999999999998-48.1L 163.2-42.4Q 156.7-46.9  147.7-46.9L 147.7-46.9Q 140.89999999999998-46.9  137.45-44.5Q 134-42.1  134-38.2L 134-38.2Q 134-35.2  135.95-33.4Q 137.89999999999998-31.6  140.79999999999998-30.75Q 143.7-29.9  148.79999999999998-29L 148.79999999999998-29Q 155.1-27.8  158.89999999999998-26.6Q 162.7-25.4  165.39999999999998-22.5Q 168.1-19.6  168.1-14.5L 168.1-14.5Q 168.1-7.6  162.35-3.55Q 156.6 0.5  146.39999999999998 0.5L 146.39999999999998 0.5Z" data-textpath="Mis" data-text-anchor="middle" data-font-size="100" data-letterspacing="0" data-side="left" data-offset="0.5" data-dx="0" data-dy="0" data-xmlspace="preserve" data-href="" data-font="Montserrat" data-font-src="/Content/clientfonts/montserrat.woff" data-font-scale="contain" transform="translate(0,0)" data-x="0" data-y="0" fill="url('#linearGradientSklfnxse616s')"></path></g></svg></g><g transform="matrix(1.0467,0,0,1.0407,129.1472,205.7323)"><svg width="304.6" height="182" style="overflow: visible;"><defs><linearGradient x1="0" y1="0.5" x2="1" y2="0.5" id="linearGradientSklfnxse616z"><stop offset="0%" stop-color="#52c8fa"></stop><stop offset="100%" stop-color="#52c8fa"></stop></linearGradient></defs><g transform="matrix(1,0,0,1,0,91.5)"><path d="M 56.5-70L 72.5-70L 72.5 0L 59.2 0L 24.3-42.5L 24.3 0L 8.3 0L 8.3-70L 21.7-70L 56.5-27.5L 56.5-70ZM 113.59999999999998 0.8Q 105.09999999999998 0.8  98.34999999999998-2.75Q 91.59999999999998-6.3  87.79999999999998-12.6Q 83.99999999999999-18.9  83.99999999999999-26.9L 83.99999999999999-26.9Q 83.99999999999999-34.9  87.79999999999998-41.2Q 91.59999999999998-47.5  98.34999999999998-51.05Q 105.09999999999998-54.6  113.59999999999998-54.6L 113.59999999999998-54.6Q 122.09999999999998-54.6  128.79999999999998-51.05Q 135.5-47.5  139.29999999999998-41.2Q 143.09999999999997-34.9  143.09999999999997-26.9L 143.09999999999997-26.9Q 143.09999999999997-18.9  139.29999999999998-12.6Q 135.5-6.3  128.79999999999998-2.75Q 122.09999999999998 0.8  113.59999999999998 0.8L 113.59999999999998 0.8ZM 113.59999999999998-12Q 119.59999999999998-12  123.44999999999999-16.05Q 127.29999999999998-20.1  127.29999999999998-26.9L 127.29999999999998-26.9Q 127.29999999999998-33.7  123.44999999999999-37.75Q 119.59999999999998-41.8  113.59999999999998-41.8L 113.59999999999998-41.8Q 107.59999999999998-41.8  103.69999999999999-37.75Q 99.79999999999998-33.7  99.79999999999998-26.9L 99.79999999999998-26.9Q 99.79999999999998-20.1  103.69999999999999-16.05Q 107.59999999999998-12  113.59999999999998-12L 113.59999999999998-12ZM 184-13.6L 188.2-2.6Q 185.89999999999998-0.9  182.54999999999998-0.05Q 179.2 0.8  175.49999999999997 0.8L 175.49999999999997 0.8Q 165.89999999999998 0.8  160.64999999999998-4.1Q 155.39999999999998-9  155.39999999999998-18.5L 155.39999999999998-18.5L 155.39999999999998-40.6L 147.1-40.6L 147.1-52.6L 155.39999999999998-52.6L 155.39999999999998-65.7L 170.99999999999997-65.7L 170.99999999999997-52.6L 184.39999999999998-52.6L 184.39999999999998-40.6L 170.99999999999997-40.6L 170.99999999999997-18.7Q 170.99999999999997-15.3  172.74999999999997-13.45Q 174.49999999999997-11.6  177.7-11.6L 177.7-11.6Q 181.39999999999998-11.6  184-13.6L 184-13.6ZM 218.7-54.6Q 231.2-54.6  237.89999999999998-48.65Q 244.59999999999997-42.7  244.59999999999997-30.7L 244.59999999999997-30.7L 244.59999999999997 0L 230 0L 230-6.7Q 225.59999999999997 0.8  213.6 0.8L 213.6 0.8Q 207.39999999999998 0.8  202.85-1.3Q 198.29999999999998-3.4  195.89999999999998-7.1Q 193.49999999999997-10.8  193.49999999999997-15.5L 193.49999999999997-15.5Q 193.49999999999997-23  199.14999999999998-27.3Q 204.79999999999998-31.6  216.6-31.6L 216.6-31.6L 229-31.6Q 229-36.7  225.89999999999998-39.45Q 222.79999999999998-42.2  216.6-42.2L 216.6-42.2Q 212.29999999999998-42.2  208.14999999999998-40.85Q 203.99999999999997-39.5  201.1-37.2L 201.1-37.2L 195.49999999999997-48.1Q 199.89999999999998-51.2  206.04999999999998-52.9Q 212.2-54.6  218.7-54.6L 218.7-54.6ZM 217.49999999999997-9.7Q 221.49999999999997-9.7  224.59999999999997-11.55Q 227.7-13.4  229-17L 229-17L 229-22.5L 218.29999999999998-22.5Q 208.7-22.5  208.7-16.2L 208.7-16.2Q 208.7-13.2  211.04999999999998-11.45Q 213.39999999999998-9.7  217.49999999999997-9.7L 217.49999999999997-9.7ZM 276.79999999999995 0.8Q 270.09999999999997 0.8  263.69999999999993-0.85Q 257.29999999999995-2.5  253.49999999999994-5L 253.49999999999994-5L 258.69999999999993-16.2Q 262.29999999999995-13.9  267.3999999999999-12.45Q 272.49999999999994-11  277.3999999999999-11L 277.3999999999999-11Q 287.29999999999995-11  287.29999999999995-15.9L 287.29999999999995-15.9Q 287.29999999999995-18.2  284.59999999999997-19.2Q 281.8999999999999-20.2  276.29999999999995-20.9L 276.29999999999995-20.9Q 269.69999999999993-21.9  265.3999999999999-23.2Q 261.09999999999997-24.5  257.94999999999993-27.8Q 254.79999999999995-31.1  254.79999999999995-37.2L 254.79999999999995-37.2Q 254.79999999999995-42.3  257.74999999999994-46.25Q 260.69999999999993-50.2  266.34999999999997-52.4Q 271.99999999999994-54.6  279.69999999999993-54.6L 279.69999999999993-54.6Q 285.3999999999999-54.6  291.04999999999995-53.35Q 296.69999999999993-52.1  300.3999999999999-49.9L 300.3999999999999-49.9L 295.19999999999993-38.8Q 288.09999999999997-42.8  279.69999999999993-42.8L 279.69999999999993-42.8Q 274.69999999999993-42.8  272.19999999999993-41.4Q 269.69999999999993-40  269.69999999999993-37.8L 269.69999999999993-37.8Q 269.69999999999993-35.3  272.3999999999999-34.3Q 275.09999999999997-33.3  280.99999999999994-32.4L 280.99999999999994-32.4Q 287.59999999999997-31.3  291.79999999999995-30.05Q 295.99999999999994-28.8  299.09999999999997-25.5Q 302.19999999999993-22.2  302.19999999999993-16.3L 302.19999999999993-16.3Q 302.19999999999993-11.3  299.19999999999993-7.4Q 296.19999999999993-3.5  290.44999999999993-1.35Q 284.69999999999993 0.8  276.79999999999995 0.8L 276.79999999999995 0.8Z" data-textpath="Notas" data-text-anchor="middle" data-font-size="100" data-letterspacing="0" data-side="left" data-offset="0.5" data-dx="0" data-dy="0" data-xmlspace="preserve" data-href="" data-font="Montserrat" data-font-src="/Content/clientfonts/montserrat-bold.woff" data-font-scale="contain" transform="translate(0,0)" data-x="0" data-y="0" fill="url('#linearGradientSklfnxse616z')"></path></g></svg></g></g></svg>