<svg class="thumb" width="570" height="195" viewBox="0,0,570,195" xmlns="http://www.w3.org/2000/svg" xmlns:inkscape="http://www.inkscape.org/namespaces/inkscape" xmlns:sodipodi="http://sodipodi.sourceforge.net/DTD/sodipodi-0.dtd" xmlns:xlink="http://www.w3.org/1999/xlink" xmlns:ns1="http://www.inkscape.org/namespaces/inkscape" xmlns:sketch="http://www.bohemiancoding.com/sketch/ns" data-guid="d3538154-8966-4313-b2b8-d5d8a902f08b"><defs></defs><g><g transform="matrix(0.6648,0,0,0.6533,285.3826,0)"><svg width="242.96875" height="203" style="overflow: visible;"><defs><linearGradient x1="0" y1="0.5" x2="1" y2="0.5" id="linearGradientSklfo7qpw4vd"><stop offset="0%" stop-color="#e78200"></stop><stop offset="100%" stop-color="#e78200"></stop></linearGradient></defs><g transform="matrix(1,0,0,1,0,107.25)"><path d="M 63.96 0L 18.75-68.75L 18.75 0L 9.38 0L 9.38-75L 25-75L 68.7-9.38L 112.4-75L 127.34-75L 127.34 0L 117.97 0L 117.97-67.72L 73.44 0L 63.96 0ZM 146.09874999999997 0L 146.09874999999997-56.25L 155.46874999999997-56.25L 155.46874999999997 0L 146.09874999999997 0ZM 155.46874999999997-75L 155.46874999999997-65.63L 146.09874999999997-65.63L 146.09874999999997-75L 155.46874999999997-75ZM 203.90374999999997-25.63L 203.90374999999997-25.63Q 209.37374999999997-25.63  213.23375-25.46Q 217.09374999999997-25.29  219.70374999999996-24.88Q 222.31374999999997-24.46  223.82374999999996-23.83Q 225.34374999999997-23.19  226.12374999999997-21.95Q 226.90374999999997-20.7  227.12374999999997-19.46Q 227.34374999999997-18.21  227.34374999999997-16.6L 227.34374999999997-16.6Q 227.34374999999997-14.84  227.12374999999997-13.4Q 226.90374999999997-11.96  226.07374999999996-10.79Q 225.24374999999998-9.62  223.63374999999996-8.79Q 222.02374999999998-7.96  219.23375-7.37Q 216.45374999999996-6.79  212.33374999999998-6.52Q 208.20374999999996-6.25  202.34374999999997-6.25L 202.34374999999997-6.25Q 195.89374999999998-6.25  191.67374999999998-6.62Q 187.45374999999996-6.98  184.96374999999998-8.01Q 182.47374999999997-9.03  181.47374999999997-10.86Q 180.47374999999997-12.7  180.47374999999997-15.63L 180.47374999999997-15.63L 171.09374999999997-15.63Q 171.09374999999997-11.18  172.68374999999997-8.11Q 174.26374999999996-5.03  177.93374999999997-3.1Q 181.59374999999997-1.17  187.57374999999996-0.29Q 193.55374999999998 0.59  202.34374999999997 0.59L 202.34374999999997 0.59Q 209.37374999999997 0.59  214.67374999999998 0.17Q 219.97374999999997-0.24  223.78374999999997-1.1Q 227.58374999999998-1.95  230.10375-3.34Q 232.61374999999998-4.74  234.08374999999995-6.67Q 235.54375-8.59  236.13374999999996-11.11Q 236.72374999999997-13.62  236.72374999999997-16.8L 236.72374999999997-16.8Q 236.72374999999997-19.97  236.13374999999996-22.39Q 235.54375-24.8  234.10375-26.59Q 232.66374999999996-28.37  230.27374999999998-29.88Q 227.88374999999996-31.4  224.22374999999997-32.13Q 220.55374999999998-32.86  215.55374999999998-33.15Q 210.54375-33.45  203.90374999999997-33.45L 203.90374999999997-33.45Q 198.43374999999997-33.45  194.58374999999998-33.47Q 190.72374999999997-33.5  188.11374999999998-33.76Q 185.49374999999998-34.03  183.98375-34.57Q 182.47374999999997-35.11  181.69374999999997-36.13Q 180.90374999999997-37.16  180.68374999999997-38.75Q 180.47374999999997-40.33  180.47374999999997-41.99L 180.47374999999997-41.99Q 180.47374999999997-44.82  181.73375-46.44Q 183.00374999999997-48.05  185.93374999999997-48.83Q 188.86374999999998-49.61  193.65374999999997-49.8Q 198.43374999999997-50  205.47374999999997-50L 205.47374999999997-50Q 211.91374999999996-50  216.13374999999996-49.63Q 220.36374999999998-49.27  222.85374999999996-48.32Q 225.34374999999997-47.36  226.34374999999997-45.7Q 227.34374999999997-44.04  227.34374999999997-41.41L 227.34374999999997-41.41L 236.72374999999997-41.41Q 236.72374999999997-45.65  235.30374999999998-48.73Q 233.88374999999996-51.81  230.34374999999997-53.83Q 226.80374999999998-55.86  220.77374999999998-56.84Q 214.74374999999998-57.81  205.47374999999997-57.81L 205.47374999999997-57.81Q 196.09374999999997-57.81  189.55374999999998-56.98Q 183.00374999999997-56.15  178.90374999999997-54.27Q 174.80374999999998-52.39  172.95374999999996-49.39Q 171.09374999999997-46.39  171.09374999999997-41.99L 171.09374999999997-41.99Q 171.09374999999997-38.77  171.68374999999997-36.01Q 172.26374999999996-33.25  173.68374999999997-31.37Q 175.09374999999997-29.49  177.51374999999996-28.37Q 179.93374999999997-27.25  183.57374999999996-26.64Q 187.20374999999996-26.03  192.23375-25.83Q 197.26374999999996-25.63  203.90374999999997-25.63Z" data-textpath="Mis" data-text-anchor="middle" data-font-size="100" data-letterspacing="0" data-side="left" data-offset="0.5" data-dx="0" data-dy="0" data-xmlspace="preserve" data-href="" data-font="Michroma" data-font-src="/Content/clientfonts/michroma.woff" data-font-scale="contain" transform="translate(0,0)" data-x="0" data-y="0" fill="url('#linearGradientSklfo7qpw4vd')"></path></g></svg></g><g transform="matrix(1.0467,0,0,1.0407,150.7815,46.3055)"><svg width="411.5234375" height="203" style="overflow: visible;"><defs><linearGradient x1="0" y1="0.5" x2="1" y2="0.5" id="linearGradientSklfo7qpw4vg"><stop offset="0%" stop-color="#e78200"></stop><stop offset="100%" stop-color="#e78200"></stop></linearGradient></defs><g transform="matrix(1,0,0,1,0,107.25)"><path d="M 18.75-67.19L 18.75 0L 9.38 0L 9.38-75L 25.83-75L 94.58-9.38L 94.58-75L 103.96-75L 103.96 0L 91.46 0L 18.75-67.19ZM 118.020078125-28.52L 118.020078125-28.52Q 118.020078125-37.16  119.870078125-42.82Q 121.730078125-48.49  125.830078125-51.81Q 129.930078125-55.13  136.470078125-56.47Q 143.020078125-57.81  152.390078125-57.81L 152.390078125-57.81Q 161.770078125-57.81  168.310078125-56.47Q 174.850078125-55.13  178.960078125-51.81Q 183.06007812500002-48.49  184.91007812499998-42.82Q 186.770078125-37.16  186.770078125-28.52L 186.770078125-28.52Q 186.770078125-19.87  184.91007812499998-14.16Q 183.06007812500002-8.45  178.960078125-5.08Q 174.850078125-1.71  168.310078125-0.32Q 161.770078125 1.07  152.390078125 1.07L 152.390078125 1.07Q 143.020078125 1.07  136.470078125-0.32Q 129.930078125-1.71  125.830078125-5.08Q 121.730078125-8.45  119.870078125-14.16Q 118.020078125-19.87  118.020078125-28.52ZM 127.390078125-28.52L 127.390078125-28.52Q 127.390078125-23.83  127.730078125-20.36Q 128.080078125-16.89  129.030078125-14.4Q 129.980078125-11.91  131.690078125-10.35Q 133.400078125-8.79  136.180078125-7.86Q 138.960078125-6.93  142.940078125-6.59Q 146.920078125-6.25  152.390078125-6.25L 152.390078125-6.25Q 157.080078125-6.25  160.770078125-6.47Q 164.450078125-6.69  167.210078125-7.47Q 169.970078125-8.25  171.920078125-9.69Q 173.880078125-11.13  175.070078125-13.62Q 176.270078125-16.11  176.830078125-19.75Q 177.390078125-23.39  177.390078125-28.52L 177.390078125-28.52Q 177.390078125-33.54  176.830078125-37.08Q 176.270078125-40.63  175.070078125-43.02Q 173.880078125-45.41  171.920078125-46.8Q 169.970078125-48.19  167.210078125-48.9Q 164.450078125-49.61  160.770078125-49.8Q 157.080078125-50  152.390078125-50L 152.390078125-50Q 147.710078125-50  144.020078125-49.8Q 140.330078125-49.61  137.570078125-48.9Q 134.810078125-48.19  132.860078125-46.8Q 130.91007812499998-45.41  129.710078125-43.02Q 128.520078125-40.63  127.950078125-37.08Q 127.390078125-33.54  127.390078125-28.52ZM 244.585078125-25L 252.395078125-25Q 252.395078125-17.82  251.225078125-13.01Q 250.045078125-8.2  247.28507812499998-5.32Q 244.53507812499998-2.44  240.03507812499998-1.22Q 235.545078125 0  228.955078125 0L 228.955078125 0Q 222.555078125 0  218.215078125-0.98Q 213.865078125-1.95  211.185078125-4.3Q 208.495078125-6.64  207.325078125-10.55Q 206.155078125-14.45  206.155078125-20.31L 206.155078125-20.31L 206.155078125-48.54L 194.585078125-48.54L 194.585078125-56.25L 206.155078125-56.25L 206.155078125-71.63L 215.525078125-71.63L 215.525078125-56.25L 250.835078125-56.25L 250.835078125-48.54L 215.525078125-48.54L 215.525078125-20.31Q 215.525078125-15.63  216.235078125-13.09Q 216.945078125-10.55  218.505078125-9.38Q 220.065078125-8.2  222.635078125-8.01Q 225.195078125-7.81  228.905078125-7.81L 228.905078125-7.81Q 231.835078125-7.81  234.155078125-7.91Q 236.475078125-8.01  238.205078125-8.52Q 239.945078125-9.03  241.165078125-10.08Q 242.385078125-11.13  243.135078125-13.04Q 243.895078125-14.94  244.235078125-17.85Q 244.585078125-20.75  244.585078125-25L 244.585078125-25ZM 317.777578125 0L 317.777578125-7.71Q 317.627578125-7.13  315.577578125-4.79L 315.577578125-4.79Q 314.10757812500003-3.03  311.667578125-1.68Q 309.227578125-0.34  305.147578125 0.42Q 301.077578125 1.17  294.437578125 1.17L 294.437578125 1.17Q 285.597578125 1.17  279.347578125 0.27Q 273.097578125-0.63  269.137578125-2.51Q 265.187578125-4.39  263.357578125-7.32Q 261.527578125-10.25  261.527578125-14.31L 261.527578125-14.31Q 261.527578125-18.55  262.527578125-21.51Q 263.527578125-24.46  265.457578125-26.46Q 267.387578125-28.47  270.117578125-29.59Q 272.847578125-30.71  276.347578125-31.3Q 279.837578125-31.88  283.987578125-32.03Q 288.137578125-32.18  292.817578125-32.18L 292.817578125-32.18Q 299.507578125-32.18  304.007578125-31.62Q 308.497578125-31.05  311.347578125-30.2Q 314.207578125-29.35  315.67757812499997-28.37Q 317.137578125-27.39  317.777578125-26.56L 317.777578125-26.56Q 317.777578125-32.03  317.307578125-35.89Q 316.847578125-39.75  315.797578125-42.33Q 314.747578125-44.92  313.087578125-46.46Q 311.42757812499997-48  309.007578125-48.78Q 306.587578125-49.56  303.367578125-49.78Q 300.147578125-50  295.997578125-50L 295.997578125-50Q 289.547578125-50  285.307578125-49.68Q 281.057578125-49.37  278.567578125-48.44Q 276.077578125-47.51  275.047578125-45.87Q 274.027578125-44.24  274.027578125-41.6L 274.027578125-41.6L 264.647578125-41.6Q 264.647578125-46.04  266.237578125-49.12Q 267.817578125-52.2  271.507578125-54.13Q 275.197578125-56.05  281.197578125-56.93Q 287.207578125-57.81  295.997578125-57.81L 295.997578125-57.81Q 304.587578125-57.81  310.547578125-56.4Q 316.507578125-54.98  320.187578125-51.42Q 323.877578125-47.85  325.517578125-41.82Q 327.147578125-35.79  327.147578125-26.56L 327.147578125-26.56L 327.147578125 0L 317.777578125 0ZM 295.997578125-6.25L 295.997578125-6.25Q 302.197578125-6.25  306.367578125-6.84Q 310.547578125-7.42  313.087578125-8.59Q 315.627578125-9.77  316.697578125-11.52Q 317.777578125-13.28  317.777578125-15.63L 317.777578125-15.63Q 317.777578125-17.97  316.527578125-19.6Q 315.287578125-21.24  312.377578125-22.27Q 309.477578125-23.29  304.687578125-23.75Q 299.897578125-24.22  292.867578125-24.22L 292.867578125-24.22Q 285.837578125-24.22  281.517578125-23.97Q 277.197578125-23.73  274.857578125-22.85Q 272.507578125-21.97  271.707578125-20.26Q 270.897578125-18.55  270.897578125-15.63L 270.897578125-15.63Q 270.897578125-12.7  271.757578125-10.86Q 272.607578125-9.03  275.247578125-8.01Q 277.877578125-6.98  282.837578125-6.62Q 287.797578125-6.25  295.997578125-6.25ZM 372.4584375-25.63L 372.4584375-25.63Q 377.9284375-25.63  381.7884375-25.46Q 385.6484375-25.29  388.2584375-24.88Q 390.8684375-24.46  392.3784375-23.83Q 393.8984375-23.19  394.6784375-21.95Q 395.4584375-20.7  395.6784375-19.46Q 395.8984375-18.21  395.8984375-16.6L 395.8984375-16.6Q 395.8984375-14.84  395.6784375-13.4Q 395.4584375-11.96  394.6284375-10.79Q 393.7984375-9.62  392.1884375-8.79Q 390.5784375-7.96  387.7884375-7.37Q 385.0084375-6.79  380.8884375-6.52Q 376.7584375-6.25  370.8984375-6.25L 370.8984375-6.25Q 364.4484375-6.25  360.2284375-6.62Q 356.0084375-6.98  353.5184375-8.01Q 351.0284375-9.03  350.0284375-10.86Q 349.0284375-12.7  349.0284375-15.63L 349.0284375-15.63L 339.6484375-15.63Q 339.6484375-11.18  341.2384375-8.11Q 342.8184375-5.03  346.4884375-3.1Q 350.1484375-1.17  356.1284375-0.29Q 362.1084375 0.59  370.8984375 0.59L 370.8984375 0.59Q 377.9284375 0.59  383.2284375 0.17Q 388.5284375-0.24  392.3384375-1.1Q 396.1384375-1.95  398.6584375-3.34Q 401.1684375-4.74  402.6384375-6.67Q 404.0984375-8.59  404.6884375-11.11Q 405.2784375-13.62  405.2784375-16.8L 405.2784375-16.8Q 405.2784375-19.97  404.6884375-22.39Q 404.0984375-24.8  402.6584375-26.59Q 401.2184375-28.37  398.8284375-29.88Q 396.4384375-31.4  392.7784375-32.13Q 389.1084375-32.86  384.1084375-33.15Q 379.0984375-33.45  372.4584375-33.45L 372.4584375-33.45Q 366.98843750000003-33.45  363.1384375-33.47Q 359.2784375-33.5  356.6684375-33.76Q 354.0484375-34.03  352.5384375-34.57Q 351.0284375-35.11  350.2484375-36.13Q 349.4584375-37.16  349.2384375-38.75Q 349.0284375-40.33  349.0284375-41.99L 349.0284375-41.99Q 349.0284375-44.82  350.2884375-46.44Q 351.5584375-48.05  354.4884375-48.83Q 357.4184375-49.61  362.2084375-49.8Q 366.98843750000003-50  374.0284375-50L 374.0284375-50Q 380.4684375-50  384.6884375-49.63Q 388.9184375-49.27  391.4084375-48.32Q 393.8984375-47.36  394.8984375-45.7Q 395.8984375-44.04  395.8984375-41.41L 395.8984375-41.41L 405.2784375-41.41Q 405.2784375-45.65  403.8584375-48.73Q 402.4384375-51.81  398.8984375-53.83Q 395.3584375-55.86  389.3284375-56.84Q 383.2984375-57.81  374.0284375-57.81L 374.0284375-57.81Q 364.6484375-57.81  358.1084375-56.98Q 351.5584375-56.15  347.4584375-54.27Q 343.3584375-52.39  341.5084375-49.39Q 339.6484375-46.39  339.6484375-41.99L 339.6484375-41.99Q 339.6484375-38.77  340.2384375-36.01Q 340.8184375-33.25  342.2384375-31.37Q 343.6484375-29.49  346.0684375-28.37Q 348.4884375-27.25  352.1284375-26.64Q 355.7584375-26.03  360.7884375-25.83Q 365.8184375-25.63  372.4584375-25.63Z" data-textpath="Notas" data-text-anchor="middle" data-font-size="100" data-letterspacing="0" data-side="left" data-offset="0.5" data-dx="0" data-dy="0" data-xmlspace="preserve" data-href="" data-font="Michroma" data-font-src="/Content/clientfonts/michroma.woff" data-font-scale="contain" transform="translate(0,0)" data-x="0" data-y="0" fill="url('#linearGradientSklfo7qpw4vg')"></path></g></svg></g><g transform="matrix(2.9777,-0.052,0.052,2.9777,53.0062,14.3416)"><svg width="16.391521320410554" height="16.381999999999998" viewBox="16.799239339794724,-1.3010000000000002,16.391521320410554,16.381999999999998"><defs></defs><circle fill="none" cx="24.995" cy="6.89" r="3.191" style=""></circle></svg></g><g transform="matrix(2.9777,-0.052,0.052,2.9777,98.7679,89.4505)"><svg width="16.383500077982838" height="16.36548071116829" viewBox="31.726697807032664,24.192,16.383500077982838,16.36548071116829"><defs></defs><path fill="none" d="M41.483,29.601c-0.474-0.265-1.015-0.409-1.557-0.409c-1.156,0-2.222,0.628-2.788,1.633   c-0.419,0.741-0.522,1.602-0.29,2.424c0.231,0.82,0.764,1.501,1.509,1.922c1.488,0.839,3.515,0.258,4.344-1.221   C43.564,32.41,43.017,30.461,41.483,29.601z" style=""></path></svg></g><g transform="matrix(2.9777,-0.052,0.052,2.9777,97.9219,39.5843)"><svg width="16.387733030101266" height="16.381999999999998" viewBox="31.73269780703267,7.436999999999999,16.387733030101266,16.381999999999998"><defs></defs><path fill="none" d="M39.921,12.437c-0.541,0-1.08,0.14-1.557,0.409c-0.744,0.414-1.279,1.097-1.51,1.915   c-0.232,0.82-0.129,1.685,0.29,2.426c0.565,1.005,1.632,1.632,2.787,1.632c0.541,0,1.081-0.144,1.559-0.411   c0.745-0.416,1.277-1.097,1.509-1.919c0.232-0.821,0.129-1.681-0.287-2.425C42.143,13.063,41.077,12.437,39.921,12.437z" style=""></path></svg></g><g transform="matrix(2.9777,-0.052,0.052,2.9777,54.7852,116.2615)"><svg width="16.389518272894044" height="16.380000000000003" viewBox="16.80024086355298,32.928000000000004,16.389518272894044,16.380000000000003"><defs></defs><circle fill="none" cx="24.995" cy="41.118" r="3.19" style=""></circle></svg></g><g transform="matrix(2.9777,-0.052,0.052,2.9777,9.0292,41.1211)"><svg width="16.37924407510215" height="16.382" viewBox="1.8839566756362434,7.431999999999999,16.37924407510215,16.382"><defs></defs><path fill="none" d="M8.514,18.408c0.474,0.266,1.013,0.406,1.556,0.406l0,0c1.153,0,2.22-0.624,2.785-1.628   c0.862-1.534,0.314-3.485-1.222-4.344c-0.477-0.269-1.015-0.41-1.556-0.41c-1.152,0-2.223,0.625-2.788,1.629   C6.432,15.592,6.979,17.542,8.514,18.408z" style=""></path></svg></g><g transform="matrix(2.9777,-0.052,0.052,2.9777,9.9019,91.0165)"><svg width="16.386512940721065" height="16.381" viewBox="1.8809361674064435,24.189,16.386512940721065,16.381"><defs></defs><path fill="none" d="M10.065,29.189c-0.541,0-1.079,0.144-1.554,0.409c-0.743,0.414-1.279,1.096-1.509,1.918   C6.77,32.34,6.874,33.2,7.292,33.944c0.562,1.005,1.633,1.626,2.792,1.626c0.541,0,1.079-0.138,1.555-0.405   c1.534-0.861,2.081-2.809,1.222-4.345C12.292,29.816,11.223,29.189,10.065,29.189z" style=""></path></svg></g><g transform="matrix(0.9066,0.482,-0.482,0.9066,68.5245,51.0357)"><svg width="51.81995029640821" height="56.191" viewBox="-0.9109068233559796,-4.09,51.81995029640821,56.191"><defs><linearGradient x1="0" y1="0.5" x2="1" y2="0.5" id="linearGradientSklfo7qpw4qv"><stop offset="47.87%" stop-color="#e78200"></stop><stop offset="100%" stop-color="#e78200"></stop></linearGradient></defs><path fill="url('#linearGradientSklfo7qpw4qv')" d="M4.858,12.695c1.562-2.771,5.361-3.852,8.144-2.287c2.875,1.617,3.899,5.27,2.286,8.145   c-1.057,1.884-3.059,3.054-5.217,3.054l0,0c-1.019,0-2.031-0.264-2.924-0.764C4.269,19.222,3.242,15.566,4.858,12.695z    M13.004,37.602c-0.895,0.497-1.903,0.76-2.921,0.76c-2.164,0-4.165-1.17-5.226-3.053c-0.782-1.395-0.975-3.008-0.541-4.547   c0.431-1.538,1.436-2.815,2.828-3.598c2.791-1.562,6.591-0.48,8.145,2.291C16.904,32.329,15.877,35.985,13.004,37.602z    M24.995,47.101c-3.297,0-5.981-2.682-5.981-5.98c0-3.298,2.685-5.982,5.981-5.982c3.3,0,5.983,2.685,5.983,5.982   C30.979,44.419,28.295,47.101,24.995,47.101z M24.995,12.872c-3.297,0-5.981-2.683-5.981-5.981c0-3.3,2.685-5.981,5.981-5.981   c3.3,0,5.983,2.681,5.983,5.981C30.979,10.189,28.295,12.872,24.995,12.872z M45.134,35.311c-1.058,1.885-3.058,3.054-5.221,3.054   c-1.023,0-2.032-0.266-2.928-0.767c-1.392-0.782-2.396-2.062-2.826-3.6c-0.434-1.539-0.235-3.152,0.544-4.544   c1.556-2.771,5.354-3.856,8.144-2.29C45.729,28.785,46.752,32.438,45.134,35.311z M45.686,17.251   c-0.433,1.537-1.441,2.812-2.834,3.594c-0.89,0.502-1.904,0.767-2.923,0.767c-2.159,0-4.162-1.17-5.223-3.056   c-0.779-1.392-0.975-3.007-0.541-4.543c0.433-1.537,1.441-2.816,2.833-3.598c2.793-1.559,6.591-0.48,8.146,2.289   C45.924,14.098,46.113,15.714,45.686,17.251z"></path></svg></g><g transform="matrix(2.9777,-0.052,0.052,2.9777,45.4351,7.0272)"><svg width="21.964000279342976" height="21.961999999999996" viewBox="14.014000000000003,-4.091,21.964000279342976,21.961999999999996"><defs><linearGradient x1="0" y1="0.5" x2="1" y2="0.5" id="linearGradientSklfo7qpw4r1"><stop offset="0%" stop-color="#7e7e7e"></stop><stop offset="100%" stop-color="#7e7e7e"></stop></linearGradient></defs><path fill="url('#linearGradientSklfo7qpw4r1')" d="M24.995,0.909c-3.297,0-5.981,2.681-5.981,5.981c0,3.299,2.685,5.981,5.981,5.981   c3.3,0,5.983-2.683,5.983-5.981C30.979,3.59,28.295,0.909,24.995,0.909z M24.995,10.081c-1.757,0-3.19-1.43-3.19-3.19   c0-1.758,1.434-3.191,3.19-3.191c1.759,0,3.191,1.433,3.191,3.191C28.187,8.651,26.755,10.081,24.995,10.081z"></path></svg></g><g transform="matrix(2.9777,-0.052,0.052,2.9777,47.2141,108.9492)"><svg width="21.964000279342976" height="21.961999999999996" viewBox="14.014000000000003,30.137999999999998,21.964000279342976,21.961999999999996"><defs><linearGradient x1="0" y1="0.5" x2="1" y2="0.5" id="linearGradientSklfo7qpw4r7"><stop offset="0%" stop-color="#7e7e7e"></stop><stop offset="100%" stop-color="#7e7e7e"></stop></linearGradient></defs><path fill="url('#linearGradientSklfo7qpw4r7')" d="M24.995,35.138c-3.297,0-5.981,2.685-5.981,5.982c0,3.299,2.685,5.98,5.981,5.98   c3.3,0,5.983-2.682,5.983-5.98C30.979,37.822,28.295,35.138,24.995,35.138z M24.995,44.308c-1.757,0-3.19-1.43-3.19-3.188   c0-1.76,1.434-3.192,3.19-3.192c1.759,0,3.191,1.433,3.191,3.192C28.187,42.878,26.755,44.308,24.995,44.308z"></path></svg></g><g transform="matrix(2.9777,-0.052,0.052,2.9777,1.454,33.8682)"><svg width="21.960571578243655" height="21.918729574123432" viewBox="-0.9074255641533826,4.6842704258765675,21.960571578243655,21.918729574123432"><defs><linearGradient x1="0" y1="0.5" x2="1" y2="0.5" id="linearGradientSklfo7qpw4rd"><stop offset="0%" stop-color="#7e7e7e"></stop><stop offset="100%" stop-color="#7e7e7e"></stop></linearGradient></defs><path fill="url('#linearGradientSklfo7qpw4rd')" d="M7.146,20.84c0.894,0.503,1.905,0.763,2.924,0.763l0,0c2.159,0,4.16-1.167,5.217-3.051   c1.617-2.877,0.59-6.53-2.286-8.145C10.219,8.84,6.417,9.92,4.858,12.692C3.242,15.566,4.269,19.222,7.146,20.84z M7.292,14.061   c0.567-1.004,1.633-1.629,2.789-1.629c0.541,0,1.079,0.141,1.555,0.41c1.534,0.863,2.081,2.81,1.221,4.344   c-0.564,1.005-1.63,1.628-2.785,1.628l0,0c-0.541,0-1.08-0.141-1.554-0.406C6.979,17.542,6.432,15.592,7.292,14.061z"></path></svg></g><g transform="matrix(2.9777,-0.052,0.052,2.9777,91.1998,82.2312)"><svg width="21.966623704264364" height="21.92290477048988" viewBox="28.936646826552376,21.445095229510123,21.966623704264364,21.92290477048988"><defs><linearGradient x1="0" y1="0.5" x2="1" y2="0.5" id="linearGradientSklfo7qpw4rj"><stop offset="0%" stop-color="#7e7e7e"></stop><stop offset="100%" stop-color="#7e7e7e"></stop></linearGradient></defs><path fill="url('#linearGradientSklfo7qpw4rj')" d="M42.85,27.167c-2.793-1.569-6.591-0.479-8.144,2.288c-0.779,1.396-0.978,3.004-0.544,4.544   c0.431,1.542,1.438,2.819,2.827,3.603c0.895,0.502,1.903,0.766,2.927,0.766c2.162,0,4.162-1.17,5.223-3.053   C46.752,32.438,45.729,28.785,42.85,27.167z M42.701,33.946c-0.829,1.48-2.855,2.061-4.344,1.221   c-0.742-0.418-1.277-1.102-1.509-1.921c-0.232-0.82-0.129-1.684,0.29-2.426c0.563-1.004,1.629-1.631,2.788-1.631   c0.539,0,1.08,0.144,1.557,0.409C43.017,30.461,43.564,32.41,42.701,33.946z"></path></svg></g><g transform="matrix(2.9777,-0.052,0.052,2.9777,90.3438,32.3389)"><svg width="21.972052872128153" height="21.91582118720742" viewBox="28.938807987908895,4.693178812792581,21.972052872128153,21.91582118720742"><defs><linearGradient x1="0" y1="0.5" x2="1" y2="0.5" id="linearGradientSklfo7qpw4rp"><stop offset="0%" stop-color="#7e7e7e"></stop><stop offset="100%" stop-color="#7e7e7e"></stop></linearGradient></defs><path fill="url('#linearGradientSklfo7qpw4rp')" d="M36.998,10.413c-1.392,0.781-2.397,2.06-2.833,3.596c-0.434,1.539-0.238,3.15,0.541,4.544   c1.058,1.887,3.061,3.056,5.223,3.056c1.019,0,2.033-0.264,2.923-0.766c1.393-0.78,2.396-2.058,2.834-3.596   c0.431-1.539,0.238-3.154-0.541-4.545C43.589,9.931,39.788,8.85,36.998,10.413z M42.996,16.493c-0.23,0.817-0.764,1.5-1.51,1.917   c-0.477,0.269-1.018,0.41-1.558,0.41c-1.155,0-2.222-0.624-2.787-1.629c-0.416-0.743-0.52-1.606-0.29-2.428   c0.23-0.817,0.767-1.499,1.509-1.916c0.474-0.267,1.014-0.409,1.559-0.409c1.155,0,2.224,0.628,2.787,1.627   C43.125,14.811,43.229,15.671,42.996,16.493z"></path></svg></g><g transform="matrix(2.9777,-0.052,0.052,2.9777,2.327,83.7732)"><svg width="21.965305483615047" height="21.91688166376193" viewBox="-0.9091456343559203,21.445118336238064,21.965305483615047,21.91688166376193"><defs><linearGradient x1="0" y1="0.5" x2="1" y2="0.5" id="linearGradientSklfo7qpw4rv"><stop offset="0%" stop-color="#7e7e7e"></stop><stop offset="100%" stop-color="#7e7e7e"></stop></linearGradient></defs><path fill="url('#linearGradientSklfo7qpw4rv')" d="M7.146,27.164c-1.392,0.782-2.397,2.06-2.828,3.598c-0.434,1.539-0.242,3.153,0.541,4.547   c1.058,1.883,3.058,3.053,5.226,3.053c1.018,0,2.026-0.263,2.921-0.76c2.875-1.616,3.899-5.272,2.286-8.146   C13.736,26.684,9.937,25.602,7.146,27.164z M11.636,35.165c-0.477,0.268-1.015,0.405-1.555,0.405c-1.155,0-2.226-0.625-2.792-1.626   c-0.416-0.744-0.52-1.605-0.291-2.428c0.229-0.82,0.764-1.504,1.511-1.918c0.474-0.267,1.011-0.409,1.552-0.409   c1.158,0,2.226,0.627,2.793,1.631C13.717,32.356,13.169,34.304,11.636,35.165z"></path></svg></g></g></svg>